# xmcd
#
# Track frame offsets: 
#        150
#        15675
#        35689
#        57986
#        74324
#        91949
#
# Disc length: 1453 seconds
#
# Revision: 0
# Processed by: cddbd v1.5.1PL0 Copyright (c) Steve Scherf et al.
# Submitted via: ExactAudioCopy v0.95a5
#
DISCID=4a05ab06
DTITLE=Rod Dowsett - Six Tracks Down
DYEAR=2003
DGENRE=Country
TTITLE0=First Night Star
TTITLE1=Railway Love
TTITLE2=Taken The Chance
TTITLE3=Circle Work
TTITLE4=One Week Out Of Two
TTITLE5=Merry Christmas
EXTD=
EXTT0=
EXTT1=
EXTT2=
EXTT3=
EXTT4=
EXTT5=
PLAYORDER=
